<svg id="visual" viewBox="0 0 1920 1080" width="1920" height="1080" xmlns="http://www.w3.org/2000/svg" xmlns:xlink="http://www.w3.org/1999/xlink" version="1.1"><path d="M0 609L22.8 585.7C45.7 562.3 91.3 515.7 137 516.5C182.7 517.3 228.3 565.7 274 590.3C319.7 615 365.3 616 411.2 593.7C457 571.3 503 525.7 548.8 516.8C594.7 508 640.3 536 686 542.8C731.7 549.7 777.3 535.3 823 537C868.7 538.7 914.3 556.3 960 558.3C1005.7 560.3 1051.3 546.7 1097 529.8C1142.7 513 1188.3 493 1234 480.8C1279.7 468.7 1325.3 464.3 1371.2 472.2C1417 480 1463 500 1508.8 521C1554.7 542 1600.3 564 1646 576.5C1691.7 589 1737.3 592 1783 574.8C1828.7 557.7 1874.3 520.3 1897.2 501.7L1920 483L1920 0L1897.2 0C1874.3 0 1828.7 0 1783 0C1737.3 0 1691.7 0 1646 0C1600.3 0 1554.7 0 1508.8 0C1463 0 1417 0 1371.2 0C1325.3 0 1279.7 0 1234 0C1188.3 0 1142.7 0 1097 0C1051.3 0 1005.7 0 960 0C914.3 0 868.7 0 823 0C777.3 0 731.7 0 686 0C640.3 0 594.7 0 548.8 0C503 0 457 0 411.2 0C365.3 0 319.7 0 274 0C228.3 0 182.7 0 137 0C91.3 0 45.7 0 22.8 0L0 0Z" fill="#0576f7" stroke-linecap="round" stroke-linejoin="miter"></path></svg>