<svg id="visual" viewBox="0 0 768 200" width="768" height="200" xmlns="http://www.w3.org/2000/svg" xmlns:xlink="http://www.w3.org/1999/xlink" version="1.1"><path d="M0 96L7.5 96.8C15 97.7 30 99.3 45 100.8C60 102.3 75 103.7 90.2 105.3C105.3 107 120.7 109 135.8 109.5C151 110 166 109 181 104.3C196 99.7 211 91.3 226 94C241 96.7 256 110.3 271 112C286 113.7 301 103.3 316 94.5C331 85.7 346 78.3 361.2 81C376.3 83.7 391.7 96.3 406.8 98.2C422 100 437 91 452 87.8C467 84.7 482 87.3 497 86.8C512 86.3 527 82.7 542 86.7C557 90.7 572 102.3 587 110.2C602 118 617 122 632.2 118.2C647.3 114.3 662.7 102.7 677.8 94.5C693 86.3 708 81.7 723 80.3C738 79 753 81 760.5 82L768 83L768 0L760.5 0C753 0 738 0 723 0C708 0 693 0 677.8 0C662.7 0 647.3 0 632.2 0C617 0 602 0 587 0C572 0 557 0 542 0C527 0 512 0 497 0C482 0 467 0 452 0C437 0 422 0 406.8 0C391.7 0 376.3 0 361.2 0C346 0 331 0 316 0C301 0 286 0 271 0C256 0 241 0 226 0C211 0 196 0 181 0C166 0 151 0 135.8 0C120.7 0 105.3 0 90.2 0C75 0 60 0 45 0C30 0 15 0 7.5 0L0 0Z" fill="#0576f7" stroke-linecap="round" stroke-linejoin="miter"></path></svg>